<?xml version="1.0" encoding="UTF-8" standalone="no"?><!DOCTYPE svg PUBLIC "-//W3C//DTD SVG 1.1//EN" "http://www.w3.org/Graphics/SVG/1.1/DTD/svg11.dtd"><svg width="100%" height="100%" viewBox="0 0 1904 2112" version="1.1" xmlns="http://www.w3.org/2000/svg" xmlns:xlink="http://www.w3.org/1999/xlink" xml:space="preserve" xmlns:serif="http://www.serif.com/" style="fill-rule:evenodd;clip-rule:evenodd;stroke-linecap:round;stroke-linejoin:round;stroke-miterlimit:1.5;"><g><g><path d="M548.776,984.17c-154.938,-73.781 -262.841,-237.793 -262.841,-428.08c-0,-259.248 200.282,-469.725 446.973,-469.725c246.691,0 446.974,210.477 446.974,469.725c-0,187.384 -104.636,349.288 -255.803,424.65c154.938,73.78 262.841,237.792 262.841,428.08c0,259.248 -200.282,469.724 -446.973,469.724c-246.691,-0 -446.974,-210.476 -446.974,-469.724c0,-187.385 104.636,-349.289 255.803,-424.65Zm216.782,40.405c98.403,21.282 174.999,182.889 174.999,378.825c0,210.389 -88.313,381.199 -197.091,381.199c-108.777,0 -197.09,-170.81 -197.09,-381.199c-0,-193.243 74.505,-353.095 170.952,-377.869c5.19,0.189 10.375,0.283 15.58,0.283c10.978,-0 21.864,-0.417 32.65,-1.239Zm-29.13,-855.105c108.777,0 197.09,170.81 197.09,381.2c0,210.389 -88.313,381.199 -197.09,381.199c-108.778,-0 -197.091,-170.81 -197.091,-381.199c-0,-210.39 88.313,-381.2 197.091,-381.2Z" style="fill:#aedcc2;"/><g><g><path d="M727.328,2106.97l-716.499,-584.989l0.851,-1.079l-7.513,0l-0,-1315.68l139.714,-85.263l127.762,-53.392l145.354,-38.123l312.058,-24.277l203.587,10.648l249.169,49.631l156.617,58.237l77.13,37.578l45.523,44.961l0,1305.15l-5.694,-0l0.806,1.022l-725.88,593.571l-0.704,-0.894l-2.281,2.894Zm668.274,-786.488l26.192,-0l-0,171.684l-694.066,564.464l-684.274,-555.505l0,-180.643l18.889,-0l-0,158.72l6.875,-0l-0.778,1l655.686,542.113l2.087,-2.682l0.645,0.828l664.27,-550.066l-0.737,-0.947l5.211,-0l-0,-148.966Zm-35.953,-0l-0,132.09l-635.157,523.093l-626.196,-514.791l-0,-140.392l1261.35,-0Zm35.953,-451.492l-0,-609.036l-41.66,-41.665l-70.583,-34.824l-143.324,-53.969l-228.021,-45.993l-186.307,-9.868l-285.573,22.498l-133.017,35.329l-116.918,49.478l-127.856,79.014l-0,609.036l-18.889,-0l0,-639.299l57.109,-27.868l70.205,-38.45l114.996,-57.921l145.67,-33.393l297.845,-25.787l200.458,11.996l236.171,49.693l157.491,64.534l61.198,31.5l33.923,32.751l3.274,632.244l-26.192,-0Zm-35.984,-0l-1261.32,-0l-0,-586.364l52.262,-25.825l64.246,-35.632l105.235,-53.676l133.307,-30.945l272.565,-23.897l183.444,11.117l216.126,46.05l144.124,59.805l56.004,29.191l31.044,30.35l2.965,579.826Z" style="fill:#4abce2;"/></g></g><rect x="31.308" y="895.947" width="1406.97" height="404.791" style="fill:none;stroke:#fff;stroke-width:7.88px;"/><g><path d="M1204.19,1877.55l-0.65,-15.99l-0.23,0.956l0,-8.684c0,-4.871 -1.192,-8.397 -3.576,-10.578c-2.385,-2.18 -6.23,-3.309 -11.534,-3.385l-8.034,-0.115l0.765,-3.519l7.269,0.114c6.58,0.102 11.355,1.575 14.326,4.419c2.971,2.844 4.457,7.364 4.457,13.561l-0,19.931l7.001,0.498l-0,2.41l-9.794,0.382Zm-16.449,0.383c-4.004,-0 -7.097,-0.918 -9.277,-2.755c-2.181,-1.836 -3.271,-4.412 -3.271,-7.727c-0,-4.259 1.46,-7.441 4.38,-9.545c2.92,-2.104 7.3,-3.156 13.141,-3.156c2.856,0 5.521,0.121 7.995,0.364c2.474,0.242 4.374,0.618 5.7,1.128l-0.344,3.099c-1.632,-0.638 -3.724,-1.008 -6.274,-1.11c-2.55,-0.102 -4.973,-0.153 -7.269,-0.153c-9.104,0 -13.657,3.035 -13.657,9.105c0,2.321 0.778,4.106 2.334,5.356c1.556,1.249 3.736,1.874 6.542,1.874c2.958,0 5.61,-0.503 7.957,-1.511c2.346,-1.007 4.201,-2.372 5.566,-4.093c1.364,-1.722 2.046,-3.666 2.046,-5.834l0,-4.782l2.87,10.406l-3.367,-0l0.65,-0.766c-0.204,1.913 -1.02,3.628 -2.448,5.146c-1.428,1.517 -3.283,2.722 -5.566,3.615c-2.283,0.892 -4.852,1.339 -7.708,1.339Z" style="fill-rule:nonzero;"/><path d="M1272.51,1877.17l0,-3.443l15.379,-0c4.233,-0 7.51,-0.963 9.831,-2.889c2.321,-1.925 3.481,-4.66 3.481,-8.205c0,-3.953 -1.141,-7.014 -3.423,-9.182c-2.283,-2.167 -5.503,-3.251 -9.66,-3.251l-15.455,-0l-0.918,-1.722l17.138,0c5.101,0 9.041,1.237 11.821,3.711c2.78,2.474 4.17,5.955 4.17,10.444c-0,4.616 -1.486,8.193 -4.457,10.73c-2.971,2.538 -7.173,3.807 -12.605,3.807l-15.302,-0Zm-3.06,-0l-0,-54.323l3.596,0l-0,54.323l-3.596,-0Zm2.754,-28.041l0,-1.454l17.138,-0l0,1.454l-17.138,-0Zm0.306,-0.957l0,-1.415l12.318,-0c3.979,-0 7.065,-0.925 9.258,-2.774c2.193,-1.849 3.29,-4.431 3.29,-7.746c-0,-3.188 -1.078,-5.643 -3.233,-7.364c-2.155,-1.722 -5.183,-2.583 -9.085,-2.583l-12.395,0l-0.918,-3.443l12.93,0c5.203,0 9.232,1.167 12.089,3.501c2.856,2.333 4.284,5.63 4.284,9.889c0,3.8 -1.115,6.739 -3.347,8.817c-2.231,2.079 -5.4,3.118 -9.506,3.118l-15.685,0Z" style="fill-rule:nonzero;"/><path d="M1331.27,1877.93c-12.752,-0 -19.128,-9.181 -19.128,-27.544c0,-18.872 6.376,-28.309 19.128,-28.309c12.752,0 19.128,9.437 19.128,28.309c-0,18.363 -6.376,27.544 -19.128,27.544Zm0,-3.443c10.303,-0 15.455,-8.034 15.455,-24.101c0,-16.577 -5.152,-24.866 -15.455,-24.866c-10.303,0 -15.455,8.289 -15.455,24.866c-0,16.067 5.152,24.101 15.455,24.101Z" style="fill-rule:nonzero;"/><path d="M1387.43,1877.17l-22.724,-50.956l-2.257,-0l-0,-3.367l4.514,0l22.724,50.956l1.606,0l0,3.367l-3.863,-0Zm-26.626,-0l0,-54.323l3.596,0l-0,54.323l-3.596,-0Zm29.15,-0l0,-54.323l3.596,0l0,54.323l-3.596,-0Z" style="fill-rule:nonzero;"/><path d="M1421.25,1877.17l0,-54.323l3.596,0l0,54.323l-3.596,-0Zm-13.772,-0l0,-3.443l31.217,-0l-0,3.443l-31.217,-0Zm0,-50.88l0,-3.443l31.217,0l-0,3.443l-31.217,0Z" style="fill-rule:nonzero;"/><path d="M1466.04,1877.17l-17.368,-54.323l3.864,0l16.258,51.377l0.383,0l16.258,-51.377l3.864,0l-17.368,54.323l-5.891,-0Z" style="fill-rule:nonzero;"/><path d="M1494.58,1877.17l17.674,-54.323l5.279,0l17.674,54.323l-3.825,-0l-16.297,-50.994l-0.382,-0l-16.297,50.994l-3.826,-0Zm6.351,-15.149l-0,-3.443l27.543,-0l0,3.443l-27.543,-0Z" style="fill-rule:nonzero;"/><path d="M1611.99,1877.93c-16.272,-0 -24.407,-9.334 -24.407,-28.003c-0,-8.85 2.046,-15.704 6.14,-20.562c4.093,-4.859 9.876,-7.288 17.348,-7.288c3.545,0 6.625,0.593 9.239,1.779c2.614,1.186 4.52,2.876 5.719,5.069l-2.486,2.563c-1.403,-1.887 -3.188,-3.354 -5.356,-4.399c-2.168,-1.046 -4.514,-1.569 -7.039,-1.569c-6.019,0 -10.839,2.085 -14.461,6.255c-3.621,4.17 -5.432,10.093 -5.432,17.769c0,16.629 7.09,24.943 21.27,24.943c4.336,-0 8.607,-0.969 12.816,-2.908l0.956,3.405c-4.514,1.964 -9.283,2.946 -14.307,2.946Z" style="fill-rule:nonzero;"/><path d="M1652.61,1877.93c-12.752,-0 -19.128,-9.181 -19.128,-27.544c-0,-18.872 6.376,-28.309 19.128,-28.309c12.751,0 19.127,9.437 19.127,28.309c0,18.363 -6.376,27.544 -19.127,27.544Zm-0,-3.443c10.303,-0 15.455,-8.034 15.455,-24.101c-0,-16.577 -5.152,-24.866 -15.455,-24.866c-10.304,0 -15.456,8.289 -15.456,24.866c0,16.067 5.152,24.101 15.456,24.101Z" style="fill-rule:nonzero;"/><path d="M1698.02,1851.92l0.498,-3.366l0.076,-0l10.865,-25.708l3.825,0l0,3.367l-1.607,-0l-10.864,25.707l-2.793,0Zm-16.641,25.249l0,-54.323l3.596,0l0,54.323l-3.596,-0Zm14.843,-25.249l-10.864,-25.707l-0.918,-0l-0,-3.367l3.137,0l10.864,25.708l0.115,-0l0.497,3.366l-2.831,0Zm15.838,25.249l0,-54.323l3.596,0l0,54.323l-3.596,-0Z" style="fill-rule:nonzero;"/><path d="M1731.19,1858.46l-0,-3.443l13.159,-0c4.872,-0 8.652,-1.256 11.343,-3.768c2.691,-2.512 4.036,-6.051 4.036,-10.616c-0,-4.565 -1.345,-8.097 -4.036,-10.597c-2.691,-2.499 -6.471,-3.749 -11.343,-3.749l-13.006,0l-0,-3.443l13.006,0c6.07,0 10.763,1.55 14.078,4.648c3.316,3.099 4.973,7.479 4.973,13.141c0,5.687 -1.657,10.08 -4.973,13.179c-3.315,3.099 -8.008,4.648 -14.078,4.648l-13.159,-0Zm-2.678,18.707l-0,-54.323l3.596,0l-0,54.323l-3.596,-0Z" style="fill-rule:nonzero;"/><path d="M1770.02,1877.17l17.674,-54.323l5.279,0l17.674,54.323l-3.826,-0l-16.297,-50.994l-0.382,-0l-16.297,50.994l-3.825,-0Zm6.35,-15.149l0,-3.443l27.544,-0l-0,3.443l-27.544,-0Z" style="fill-rule:nonzero;"/><path d="M1846.49,1877.17l-22.724,-50.956l-2.257,-0l0,-3.367l4.514,0l22.724,50.956l1.607,0l-0,3.367l-3.864,-0Zm-26.626,-0l0,-54.323l3.596,0l0,54.323l-3.596,-0Zm29.151,-0l-0,-54.323l3.596,0l-0,54.323l-3.596,-0Z" style="fill-rule:nonzero;"/><path d="M1881.19,1859.42l-20.122,-36.572l4.17,0l16.756,31.178l0.306,0l16.755,-31.178l4.17,0l-20.122,36.572l-1.913,0Zm-0.841,17.751l-0,-22.571l3.596,0l-0,22.571l-3.596,-0Z" style="fill-rule:nonzero;"/></g></g><path d="M1365.86,1237.75c-9.18,-0 -16.293,-3.119 -21.339,-9.355c-5.045,-6.237 -7.568,-15.032 -7.568,-26.384c0,-11.843 2.514,-21.023 7.542,-27.54c5.028,-6.517 12.15,-9.776 21.365,-9.776c9.215,0 16.336,3.259 21.364,9.776c5.028,6.517 7.542,15.697 7.542,27.54c0,11.352 -2.514,20.147 -7.542,26.384c-5.028,6.236 -12.149,9.355 -21.364,9.355Zm2.733,-20.971c-5.326,0 -9.452,-1.349 -12.378,-4.046c-2.925,-2.698 -4.388,-6.57 -4.388,-11.616c-0,-4.905 1.41,-8.707 4.231,-11.405c2.82,-2.697 6.858,-4.046 12.114,-4.046c3.013,-0 5.589,0.525 7.726,1.576c2.137,1.051 3.644,2.558 4.52,4.52l-3.679,3.259c-2.067,-3.014 -5.063,-4.52 -8.987,-4.52c-3.469,-0 -6.15,0.876 -8.042,2.628c-1.892,1.752 -2.838,4.239 -2.838,7.463c0,3.679 1.121,6.491 3.364,8.435c2.242,1.945 5.448,2.917 9.618,2.917c1.542,0 3.075,-0.122 4.599,-0.368c1.524,-0.245 3.004,-0.578 4.441,-0.998l1.261,4.625c-1.822,0.63 -3.723,1.051 -5.702,1.261c-1.98,0.21 -3.933,0.315 -5.86,0.315Zm-2.733,16.241c7.638,-0 13.559,-2.707 17.764,-8.12c4.204,-5.414 6.307,-13.043 6.307,-22.889c-0,-10.301 -2.103,-18.29 -6.307,-23.966c-4.205,-5.676 -10.126,-8.515 -17.764,-8.515c-7.639,0 -13.56,2.839 -17.765,8.515c-4.204,5.676 -6.307,13.665 -6.307,23.966c0,9.846 2.103,17.475 6.307,22.889c4.205,5.413 10.126,8.12 17.765,8.12Z" style="fill:#fff;fill-rule:nonzero;"/><g><path d="M105.549,1116.42c0.744,-4.219 1.633,-8.898 2.666,-14.037c1.034,-5.139 2.15,-10.467 3.349,-15.985c1.198,-5.517 2.418,-11.089 3.658,-16.715c1.24,-5.625 2.46,-11.035 3.659,-16.228c1.198,-5.193 2.294,-10.034 3.286,-14.524c0.992,-4.49 1.86,-8.303 2.604,-11.441c1.571,-7.032 3.059,-14.091 4.465,-21.177c1.405,-7.086 2.77,-14.524 4.092,-22.314c1.654,-4.219 3.886,-7.221 6.697,-9.006c2.811,-1.785 5.87,-2.678 9.178,-2.678c2.645,1.839 4.733,4.355 6.262,7.546c1.53,3.192 2.295,6.789 2.295,10.792c-0,2.813 -0.352,6.031 -1.054,9.655c-0.703,3.625 -1.592,7.519 -2.667,11.685c-1.075,4.165 -2.273,8.546 -3.596,13.144c-1.323,4.598 -2.605,9.331 -3.845,14.2c-2.315,8.871 -4.63,17.742 -6.945,26.614c-2.315,8.871 -4.588,18.229 -6.821,28.074c-0.578,2.597 -1.198,5.193 -1.86,7.79c-0.661,2.596 -1.343,5.409 -2.046,8.438c-0.703,3.03 -1.468,6.41 -2.294,10.143c-0.827,3.732 -1.654,8.033 -2.481,12.901c-0.992,5.734 -1.86,11.495 -2.604,17.283c-0.744,5.788 -1.447,11.603 -2.108,17.445c-0.662,5.842 -1.406,11.738 -2.233,17.689c-0.826,5.95 -1.819,11.954 -2.976,18.013c-0.413,2.163 -1.137,4.084 -2.17,5.761c-1.034,1.676 -2.212,3.11 -3.535,4.3c-1.323,1.19 -2.728,2.11 -4.216,2.759c-1.488,0.649 -2.894,0.973 -4.217,0.973c-1.323,0 -2.583,-0.135 -3.782,-0.405c-1.199,-0.271 -2.129,-0.893 -2.791,-1.866c-0.992,-1.407 -1.777,-2.976 -2.356,-4.707c-0.579,-1.731 -0.868,-3.57 -0.868,-5.517c-0,-0.541 0.021,-1.055 0.062,-1.542c0.041,-0.487 0.103,-1 0.186,-1.541l15.006,-85.522Z" style="fill:#ffd1cf;fill-rule:nonzero;"/><path d="M366.41,1078.94c25.63,22.07 38.445,43.221 38.445,63.452c-0,12.225 -3.452,23.584 -10.356,34.079c-6.903,10.494 -16.163,18.851 -27.779,25.072c-11.617,6.221 -22.964,9.331 -34.043,9.331c-16.949,-0 -31.004,-5.572 -42.165,-16.715c-11.162,-11.143 -16.743,-24.504 -16.743,-40.083c0,-15.579 4.052,-29.183 12.154,-40.814c8.102,-11.63 21.662,-24.044 40.677,-37.243c-9.673,-11.468 -14.51,-25.099 -14.51,-40.894c0,-17.959 6.346,-32.97 19.037,-45.033c12.691,-12.063 27.924,-18.094 45.7,-18.094c12.98,-0 24.762,4.165 35.344,12.495c10.583,8.331 18.024,19.852 22.323,34.566c3.638,-0.433 6.367,-0.649 8.185,-0.649c5.044,-0 7.565,3.678 7.565,11.035c0,13.523 -6.159,20.285 -18.478,20.285c-11.657,-0 -33.443,9.737 -65.356,29.21Zm-18.975,-16.552c20.587,-12.658 42.414,-24.288 65.481,-34.891c-4.63,-18.391 -17.321,-27.587 -38.073,-27.587c-10.17,-0 -19.182,3.57 -27.036,10.71c-7.854,7.141 -11.781,15.309 -11.781,24.505c-0,10.71 3.803,19.798 11.409,27.263Zm-2.604,30.508c-15.957,10.603 -27.759,20.826 -35.407,30.671c-7.648,9.845 -11.471,20.015 -11.471,30.509c-0,7.248 2.811,13.875 8.433,19.879c5.622,6.005 14.386,9.007 26.291,9.007c12.815,-0 24.018,-4.084 33.609,-12.252c9.59,-8.168 14.385,-17.608 14.385,-28.318c0,-8.439 -2.707,-16.174 -8.123,-23.206c-5.415,-7.032 -14.654,-15.796 -27.717,-26.29Z" style="fill:#ffd1cf;fill-rule:nonzero;"/><path d="M599.272,1183.45c3.141,-17.959 6.676,-36.081 10.603,-54.364c3.927,-18.284 7.751,-36.405 11.471,-54.364c1.571,-7.465 2.956,-14.254 4.155,-20.366c1.199,-6.113 2.212,-11.657 3.038,-16.634c0.827,-4.977 1.447,-9.493 1.861,-13.55c0.413,-4.057 0.62,-7.817 0.62,-11.279l-0,-2.191c-0,-0.811 -0.042,-1.812 -0.124,-3.002c-0.827,0 -2.667,0.595 -5.519,1.785c-2.852,1.19 -6.201,2.759 -10.045,4.706c-3.845,1.948 -7.896,4.139 -12.154,6.573c-4.258,2.434 -8.206,4.895 -11.843,7.384c-2.894,1.947 -5.312,3.57 -7.255,4.868c-1.943,1.298 -3.618,2.299 -5.023,3.002c-1.406,0.703 -2.687,1.19 -3.845,1.461c-1.157,0.27 -2.356,0.405 -3.596,0.405c-2.563,0 -4.775,-1.298 -6.635,-3.894c-1.86,-2.597 -2.79,-5.951 -2.79,-10.062c-0,-2.38 0.186,-4.462 0.558,-6.248c0.372,-1.785 0.951,-3.38 1.736,-4.787c0.785,-1.406 1.84,-2.732 3.162,-3.976c1.323,-1.244 2.936,-2.515 4.837,-3.813c20.917,-14.281 42.083,-24.748 63.496,-31.401c21.414,-6.654 42.91,-9.981 64.489,-9.981c1.736,0 3.803,0.054 6.201,0.163c2.397,0.108 4.857,0.297 7.378,0.568c2.522,0.27 4.982,0.649 7.379,1.136c2.398,0.486 4.506,1.054 6.325,1.703c1.902,0.758 3.555,2.326 4.961,4.707c1.405,2.38 2.108,4.922 2.108,7.627c0,2.163 -0.144,4.273 -0.434,6.329c-0.289,2.055 -0.806,3.84 -1.55,5.355c-0.744,1.515 -1.716,2.732 -2.914,3.651c-1.199,0.92 -2.667,1.38 -4.403,1.38c-2.976,-0.433 -6.387,-0.974 -10.231,-1.623c-3.845,-0.649 -7.71,-0.974 -11.596,-0.974c-7.772,0 -15.523,0.244 -23.253,0.73c-7.73,0.487 -15.647,1.921 -23.749,4.301c-0.413,0.216 -0.682,0.784 -0.806,1.704c-0.124,0.919 -0.227,2.082 -0.31,3.489c-0.248,5.842 -0.62,10.981 -1.116,15.416c-0.496,4.436 -1.178,8.872 -2.047,13.307c-0.868,4.436 -1.922,9.223 -3.162,14.362c-1.24,5.139 -2.687,11.306 -4.34,18.5c-1.654,7.195 -3.576,15.795 -5.767,25.803c-2.191,10.007 -4.61,22.097 -7.255,36.269l-5.953,31.483c-1.405,7.248 -2.501,13.766 -3.286,19.554c-0.786,5.788 -1.468,11.495 -2.047,17.121c-0.33,1.839 -1.591,3.57 -3.782,5.193c-2.191,1.623 -4.775,2.434 -7.751,2.434c-1.736,0 -3.307,-0.622 -4.713,-1.866c-1.405,-1.244 -2.563,-2.84 -3.472,-4.787c-0.91,-1.948 -1.53,-4.084 -1.86,-6.41c-0.331,-2.326 -0.248,-4.625 0.248,-6.897Z" style="fill:#ffd1cf;fill-rule:nonzero;"/><path d="M702.825,1204.7c0,-1.19 0.145,-2.785 0.434,-4.787c0.289,-2.001 0.641,-4.057 1.054,-6.167c0.414,-2.109 0.848,-4.138 1.302,-6.085c0.455,-1.947 0.807,-3.516 1.055,-4.706l50.226,-215.671c0.413,-0.757 0.868,-1.406 1.364,-1.947c0.414,-0.541 0.972,-1.001 1.674,-1.379c0.703,-0.379 1.551,-0.568 2.543,-0.568l2.108,-0c1.819,-0 3.348,0.405 4.589,1.217c1.24,0.811 2.232,1.893 2.976,3.245c0.744,1.353 1.261,2.921 1.55,4.707c0.29,1.785 0.434,3.705 0.434,5.761c0,1.73 -0.103,3.543 -0.31,5.436c-0.206,1.893 -0.434,3.732 -0.682,5.517c-0.248,1.785 -0.517,3.435 -0.806,4.95c-0.289,1.515 -0.517,2.705 -0.682,3.57l-25.795,115.219l11.781,-1.46c13.146,-3.787 26.56,-7.709 40.243,-11.766c13.684,-4.057 27.098,-7.979 40.244,-11.765c1.488,-0.974 2.811,-2.975 3.968,-6.004c1.158,-3.03 2.294,-6.979 3.411,-11.847c1.116,-4.868 2.335,-10.575 3.658,-17.12c1.323,-6.546 2.935,-13.821 4.837,-21.827l2.604,-11.197c1.075,-5.41 2.046,-10.954 2.914,-16.634c0.869,-5.68 1.923,-10.846 3.163,-15.498c1.24,-4.652 2.811,-8.466 4.712,-11.441c1.902,-2.975 4.341,-4.462 7.317,-4.462c4.217,-0 7.483,1.758 9.798,5.274c2.315,3.516 3.472,7.924 3.472,13.226c0,3.353 -0.971,8.979 -2.914,16.877c-1.943,7.897 -4.362,17.526 -7.255,28.886c-1.075,4.219 -2.233,8.546 -3.473,12.982c-1.24,4.436 -2.377,8.682 -3.41,12.739c-1.034,4.057 -1.881,7.789 -2.542,11.197c-0.662,3.408 -0.993,6.14 -0.993,8.195c0,1.948 0.207,3.868 0.621,5.761c0.413,1.894 0.62,3.922 0.62,6.086c-0,4.868 -0.993,8.925 -2.977,12.171c-1.984,3.245 -4.712,6.545 -8.185,9.899c-0.165,0.865 -0.393,2.218 -0.682,4.057c-0.289,1.839 -0.641,3.732 -1.054,5.68l-1.612,8.276c-1.158,5.95 -2.129,11.901 -2.915,17.851c-0.785,5.95 -1.488,11.846 -2.108,17.688c-0.62,5.843 -1.281,11.685 -1.984,17.527c-0.703,5.842 -1.592,11.63 -2.667,17.364c-0.413,2.163 -1.136,4.084 -2.17,5.761c-1.033,1.676 -2.232,3.11 -3.596,4.3c-1.364,1.19 -2.791,2.11 -4.279,2.759c-1.488,0.649 -2.894,0.973 -4.216,0.973c-1.985,0 -3.597,-0.595 -4.837,-1.785c-1.24,-1.19 -2.212,-2.596 -2.914,-4.219c-0.703,-1.623 -1.179,-3.3 -1.427,-5.031c-0.248,-1.731 -0.372,-3.191 -0.372,-4.381c0,-1.298 0.145,-3.435 0.434,-6.41c0.29,-2.975 0.682,-6.464 1.179,-10.467c0.496,-4.003 1.074,-8.331 1.736,-12.983c0.661,-4.652 1.323,-9.358 1.984,-14.118c1.571,-11.035 3.39,-23.098 5.457,-36.189l-0.868,0c-2.15,0 -4.465,0.298 -6.945,0.893c-2.481,0.595 -5.457,1.433 -8.929,2.515c-1.571,0.649 -3.907,1.515 -7.007,2.597c-3.101,1.082 -6.635,2.326 -10.604,3.732c-3.968,1.407 -8.247,2.921 -12.835,4.544c-4.589,1.623 -9.157,3.246 -13.704,4.869l-33.609,12.008c-1.57,4.22 -3.038,8.79 -4.402,13.713c-1.364,4.922 -2.625,9.899 -3.783,14.93c-1.157,5.03 -2.211,9.98 -3.162,14.848c-0.951,4.869 -1.84,9.467 -2.666,13.794c-0.248,1.19 -0.765,2.488 -1.551,3.895c-0.785,1.406 -1.694,2.705 -2.728,3.895c-1.033,1.19 -2.108,2.163 -3.224,2.921c-1.116,0.757 -2.171,1.136 -3.163,1.136c-1.819,-0 -3.328,-0.514 -4.526,-1.542c-1.199,-1.028 -2.171,-2.38 -2.915,-4.057c-0.744,-1.677 -1.261,-3.57 -1.55,-5.68c-0.289,-2.11 -0.434,-4.192 -0.434,-6.248Z" style="fill:#ffd1cf;fill-rule:nonzero;"/><path d="M1002.82,1211.36c-1.736,-0 -3.266,-0.433 -4.589,-1.298c-1.322,-0.866 -2.418,-2.002 -3.286,-3.408c-0.868,-1.407 -1.53,-3.03 -1.984,-4.869c-0.455,-1.839 -0.682,-3.678 -0.682,-5.517c-0,-1.623 0.33,-3.868 0.992,-6.735c0.661,-2.867 1.509,-6.085 2.542,-9.656c1.034,-3.57 2.17,-7.302 3.411,-11.197c1.24,-3.895 2.439,-7.627 3.596,-11.197c1.158,-3.57 2.15,-6.87 2.976,-9.899c0.827,-3.03 1.406,-5.41 1.737,-7.141c0.33,-1.947 0.744,-4.273 1.24,-6.978c0.496,-2.704 1.054,-5.652 1.674,-8.844c0.62,-3.191 1.24,-6.545 1.86,-10.061c0.62,-3.516 1.261,-7.059 1.923,-10.63c-1.158,0.325 -2.584,0.622 -4.279,0.893c-1.695,0.27 -3.493,0.514 -5.395,0.73c-2.728,0.325 -5.415,0.812 -8.061,1.461c-2.645,0.649 -5.353,1.379 -8.123,2.19c-2.77,0.812 -5.643,1.677 -8.619,2.597c-2.976,0.92 -6.159,1.866 -9.549,2.84c-4.961,1.406 -9.921,2.975 -14.882,4.706c-4.961,1.731 -10.128,2.596 -15.502,2.596c-1.654,0 -3.183,-0.568 -4.589,-1.703c-1.405,-1.136 -2.976,-1.975 -4.712,-2.516c-1.654,3.462 -3.225,7.168 -4.713,11.116c-1.488,3.949 -2.852,8.006 -4.093,12.171c-1.24,4.166 -2.356,8.277 -3.348,12.334c-0.992,4.057 -1.86,7.87 -2.604,11.44c-0.414,1.948 -0.765,4.463 -1.054,7.546c-0.29,3.084 -0.558,6.221 -0.807,9.413c-0.248,3.191 -0.496,6.247 -0.744,9.169c-0.248,2.921 -0.496,5.247 -0.744,6.978c-0.248,1.622 -0.744,3.218 -1.488,4.787c-0.744,1.569 -1.653,3.002 -2.728,4.3c-1.075,1.299 -2.274,2.353 -3.597,3.165c-1.323,0.811 -2.645,1.217 -3.968,1.217c-2.315,-0 -4.196,-0.893 -5.643,-2.678c-1.447,-1.785 -2.604,-4.003 -3.472,-6.653c-0.869,-2.651 -1.468,-5.545 -1.799,-8.682c-0.33,-3.138 -0.496,-6.005 -0.496,-8.601c0,-6.6 0.62,-13.442 1.861,-20.529c1.24,-7.086 2.914,-14.28 5.022,-21.583c2.108,-7.302 4.589,-14.659 7.441,-22.07c2.852,-7.411 5.932,-14.794 9.239,-22.151c2.729,-6.6 6.118,-14.227 10.17,-22.882c4.051,-8.655 8.577,-17.553 13.579,-26.695c5.002,-9.142 10.418,-18.094 16.247,-26.857c5.828,-8.763 11.884,-16.58 18.168,-23.45c6.283,-6.869 12.732,-12.414 19.346,-16.633c6.615,-4.22 13.187,-6.329 19.719,-6.329c6.862,-0 12.588,1.623 17.176,4.868c4.589,3.246 8.247,7.627 10.976,13.145c2.728,5.517 4.65,11.954 5.766,19.311c1.117,7.357 1.675,15.146 1.675,23.369c-0,7.248 -0.352,14.713 -1.055,22.394c-0.702,7.681 -1.57,15.2 -2.604,22.557c-1.033,7.357 -2.149,14.443 -3.348,21.259c-1.199,6.816 -2.295,12.982 -3.287,18.5l-4.34,22.07c-0.166,0.649 -0.476,1.947 -0.93,3.895c-0.455,1.947 -1.034,4.3 -1.737,7.059c-0.702,2.759 -1.488,5.734 -2.356,8.925c-0.868,3.192 -1.736,6.329 -2.604,9.412c-0.868,3.084 -1.695,5.924 -2.481,8.52c-0.785,2.597 -1.467,4.706 -2.046,6.329l0.124,-0.162c-0.579,2.813 -1.199,5.68 -1.86,8.601c-0.662,2.921 -1.571,5.544 -2.728,7.87c-1.158,2.326 -2.646,4.22 -4.465,5.68c-1.819,1.461 -4.175,2.191 -7.069,2.191Zm6.325,-203.175c-3.721,0 -7.42,1.001 -11.1,3.002c-3.679,2.002 -7.296,4.625 -10.851,7.871c-3.555,3.245 -7.007,7.032 -10.355,11.359c-3.349,4.328 -6.532,8.764 -9.55,13.307c-3.017,4.544 -5.849,9.115 -8.495,13.713c-2.645,4.598 -5.043,8.844 -7.193,12.739c-0.33,0.649 -0.764,1.488 -1.302,2.515c-0.537,1.028 -1.075,2.164 -1.612,3.408c-0.537,1.244 -1.054,2.543 -1.55,3.895c-0.496,1.352 -0.91,2.569 -1.24,3.651l12.773,0c4.63,0 9.922,-0.432 15.874,-1.298c5.953,-0.865 11.844,-1.893 17.673,-3.083c5.828,-1.19 11.182,-2.407 16.06,-3.652c4.878,-1.244 8.557,-2.19 11.037,-2.839c0.331,-1.407 0.641,-3.3 0.93,-5.68c0.29,-2.38 0.558,-5.031 0.806,-7.952c0.248,-2.921 0.434,-6.031 0.558,-9.331c0.124,-3.3 0.186,-6.681 0.186,-10.143c0,-2.812 -0.082,-6.031 -0.248,-9.655c-0.165,-3.625 -0.661,-7.059 -1.488,-10.305c-0.827,-3.246 -2.087,-5.977 -3.782,-8.195c-1.695,-2.218 -4.072,-3.327 -7.131,-3.327Z" style="fill:#ffd1cf;fill-rule:nonzero;"/><path d="M1122.62,1183.45c3.141,-17.959 6.676,-36.081 10.603,-54.364c3.927,-18.284 7.751,-36.405 11.471,-54.364c1.571,-7.465 2.956,-14.254 4.155,-20.366c1.199,-6.113 2.212,-11.657 3.038,-16.634c0.827,-4.977 1.447,-9.493 1.861,-13.55c0.413,-4.057 0.62,-7.817 0.62,-11.279l-0,-2.191c-0,-0.811 -0.042,-1.812 -0.124,-3.002c-0.827,0 -2.667,0.595 -5.519,1.785c-2.852,1.19 -6.201,2.759 -10.045,4.706c-3.845,1.948 -7.896,4.139 -12.154,6.573c-4.258,2.434 -8.206,4.895 -11.843,7.384c-2.894,1.947 -5.312,3.57 -7.255,4.868c-1.943,1.298 -3.618,2.299 -5.023,3.002c-1.406,0.703 -2.687,1.19 -3.845,1.461c-1.157,0.27 -2.356,0.405 -3.596,0.405c-2.563,0 -4.775,-1.298 -6.635,-3.894c-1.86,-2.597 -2.79,-5.951 -2.79,-10.062c-0,-2.38 0.186,-4.462 0.558,-6.248c0.372,-1.785 0.951,-3.38 1.736,-4.787c0.786,-1.406 1.84,-2.732 3.162,-3.976c1.323,-1.244 2.936,-2.515 4.837,-3.813c20.918,-14.281 42.083,-24.748 63.496,-31.401c21.414,-6.654 42.91,-9.981 64.489,-9.981c1.736,0 3.803,0.054 6.201,0.163c2.397,0.108 4.857,0.297 7.379,0.568c2.521,0.27 4.981,0.649 7.378,1.136c2.398,0.486 4.506,1.054 6.325,1.703c1.902,0.758 3.555,2.326 4.961,4.707c1.405,2.38 2.108,4.922 2.108,7.627c0,2.163 -0.144,4.273 -0.434,6.329c-0.289,2.055 -0.806,3.84 -1.55,5.355c-0.744,1.515 -1.716,2.732 -2.914,3.651c-1.199,0.92 -2.667,1.38 -4.403,1.38c-2.976,-0.433 -6.387,-0.974 -10.231,-1.623c-3.845,-0.649 -7.71,-0.974 -11.596,-0.974c-7.771,0 -15.523,0.244 -23.253,0.73c-7.73,0.487 -15.647,1.921 -23.749,4.301c-0.413,0.216 -0.682,0.784 -0.806,1.704c-0.124,0.919 -0.227,2.082 -0.31,3.489c-0.248,5.842 -0.62,10.981 -1.116,15.416c-0.496,4.436 -1.178,8.872 -2.046,13.307c-0.869,4.436 -1.923,9.223 -3.163,14.362c-1.24,5.139 -2.687,11.306 -4.34,18.5c-1.654,7.195 -3.576,15.795 -5.767,25.803c-2.191,10.007 -4.609,22.097 -7.255,36.269l-5.953,31.483c-1.405,7.248 -2.501,13.766 -3.286,19.554c-0.786,5.788 -1.468,11.495 -2.047,17.121c-0.33,1.839 -1.591,3.57 -3.782,5.193c-2.191,1.623 -4.775,2.434 -7.751,2.434c-1.736,0 -3.307,-0.622 -4.713,-1.866c-1.405,-1.244 -2.563,-2.84 -3.472,-4.787c-0.91,-1.948 -1.53,-4.084 -1.86,-6.41c-0.331,-2.326 -0.248,-4.625 0.248,-6.897Z" style="fill:#ffd1cf;fill-rule:nonzero;"/><path d="M1282.6,1139.63c-1.736,-0 -3.265,-0.947 -4.588,-2.84c-1.323,-1.893 -2.419,-4.246 -3.287,-7.059c-0.868,-2.813 -1.529,-5.923 -1.984,-9.331c-0.455,-3.408 -0.682,-6.573 -0.682,-9.494c0,-4.868 0.579,-8.79 1.736,-11.765c1.158,-2.975 3.431,-5.761 6.821,-8.357c0.662,-0.433 1.902,-1.38 3.721,-2.84c1.819,-1.461 3.947,-3.165 6.386,-5.112c2.439,-1.947 5.085,-4.057 7.937,-6.329c2.853,-2.272 5.581,-4.49 8.186,-6.653c2.604,-2.164 5.002,-4.139 7.192,-5.924c2.191,-1.785 3.866,-3.164 5.023,-4.138c2.232,-1.947 4.878,-4.408 7.937,-7.384c3.059,-2.975 5.974,-6.247 8.743,-9.818c2.77,-3.57 5.126,-7.356 7.069,-11.359c1.943,-4.003 2.915,-8.06 2.915,-12.171c-0,-2.056 -0.269,-4.03 -0.807,-5.923c-0.537,-1.894 -1.24,-3.598 -2.108,-5.112c-0.868,-1.515 -1.86,-2.732 -2.976,-3.652c-1.116,-0.919 -2.212,-1.379 -3.287,-1.379c-5.704,0 -11.471,0.784 -17.3,2.353c-5.829,1.569 -11.616,3.76 -17.362,6.572c-5.746,2.813 -11.41,6.14 -16.99,9.981c-5.581,3.84 -11.017,8.033 -16.308,12.576l-0,-0.162c-0.414,0.541 -1.117,1.271 -2.109,2.191c-0.992,0.92 -2.108,1.812 -3.348,2.678c-1.24,0.865 -2.501,1.649 -3.783,2.353c-1.281,0.703 -2.418,1.054 -3.41,1.054c-0.91,0 -2.005,-0.243 -3.286,-0.73c-1.282,-0.487 -2.522,-1.217 -3.721,-2.191c-1.199,-0.973 -2.232,-2.217 -3.1,-3.732c-0.868,-1.515 -1.303,-3.3 -1.303,-5.355c0,-2.056 0.683,-4.22 2.047,-6.491c1.364,-2.272 3.121,-4.571 5.27,-6.897c2.15,-2.326 4.548,-4.625 7.193,-6.897c2.646,-2.272 5.271,-4.355 7.875,-6.248c2.605,-1.893 5.044,-3.57 7.317,-5.031c2.274,-1.46 4.072,-2.569 5.395,-3.327c9.508,-4.868 18.768,-8.898 27.78,-12.089c9.011,-3.192 18.189,-4.788 27.531,-4.788c3.886,0 7.813,1.217 11.782,3.652c3.968,2.434 7.565,5.679 10.789,9.736c3.225,4.057 5.85,8.737 7.875,14.038c2.026,5.301 3.039,10.818 3.039,16.552c-0,4.652 -0.827,9.223 -2.481,13.713c-1.653,4.49 -3.824,8.844 -6.511,13.063c-2.687,4.22 -5.725,8.277 -9.115,12.172c-3.39,3.894 -6.862,7.6 -10.417,11.116c-3.555,3.516 -7.028,6.761 -10.418,9.737c-3.389,2.975 -6.407,5.652 -9.053,8.032c-2.563,2.272 -5.291,4.571 -8.185,6.897c-2.893,2.326 -5.601,4.544 -8.123,6.654c-2.521,2.109 -4.733,4.165 -6.635,6.166c-1.901,2.002 -3.1,3.814 -3.596,5.437c-0.414,2.164 -0.682,4.138 -0.806,5.923c-0.124,1.785 -0.228,3.435 -0.31,4.95c-0.083,1.406 -0.104,2.867 -0.062,4.381c0.041,1.515 -0.207,2.921 -0.744,4.219c-0.538,1.299 -1.509,2.353 -2.915,3.165c-1.405,0.811 -3.555,1.217 -6.449,1.217Zm10.418,48.197c-0,3.679 -0.6,7.195 -1.798,10.548c-1.199,3.354 -2.791,6.275 -4.775,8.764c-1.984,2.488 -4.279,4.489 -6.883,6.004c-2.604,1.515 -5.312,2.272 -8.123,2.272c-2.15,-0 -4.175,-0.514 -6.077,-1.542c-1.901,-1.028 -3.555,-2.461 -4.96,-4.3c-1.406,-1.839 -2.501,-4.003 -3.287,-6.491c-0.785,-2.489 -1.178,-5.139 -1.178,-7.952c-0,-3.679 0.641,-7.222 1.922,-10.63c1.282,-3.407 2.956,-6.41 5.023,-9.006c2.067,-2.597 4.423,-4.679 7.069,-6.248c2.645,-1.569 5.332,-2.353 8.061,-2.353c2.149,0 4.134,0.541 5.953,1.623c1.818,1.082 3.41,2.542 4.774,4.381c1.364,1.84 2.419,4.057 3.163,6.654c0.744,2.596 1.116,5.355 1.116,8.276Z" style="fill:#ffd1cf;fill-rule:nonzero;"/></g></g></svg>